<?xml version="1.0" encoding="UTF-8" standalone="no"?>
<!-- Created with Inkscape (http://www.inkscape.org/) -->

<svg
   xmlns:dc="http://purl.org/dc/elements/1.1/"
   xmlns:cc="http://creativecommons.org/ns#"
   xmlns:rdf="http://www.w3.org/1999/02/22-rdf-syntax-ns#"
   xmlns:svg="http://www.w3.org/2000/svg"
   xmlns="http://www.w3.org/2000/svg"
   xmlns:sodipodi="http://sodipodi.sourceforge.net/DTD/sodipodi-0.dtd"
   xmlns:inkscape="http://www.inkscape.org/namespaces/inkscape"
   width="26.458338mm"
   height="26.458321mm"
   viewBox="0 0 26.458338 26.458321"
   version="1.1"
   id="svg10620"
   inkscape:version="0.92.4 (5da689c313, 2019-01-14)"
   sodipodi:docname="ic_cultural.svg">
  <defs
     id="defs10614" />
  <sodipodi:namedview
     id="base"
     pagecolor="#ffffff"
     bordercolor="#666666"
     borderopacity="1.0"
     inkscape:pageopacity="0.0"
     inkscape:pageshadow="2"
     inkscape:zoom="0.35"
     inkscape:cx="-369.99999"
     inkscape:cy="34.285689"
     inkscape:document-units="mm"
     inkscape:current-layer="layer1"
     showgrid="false"
     fit-margin-top="0"
     fit-margin-left="0"
     fit-margin-right="0"
     fit-margin-bottom="0"
     inkscape:window-width="1920"
     inkscape:window-height="1017"
     inkscape:window-x="-8"
     inkscape:window-y="-8"
     inkscape:window-maximized="1" />
  <metadata
     id="metadata10617">
    <rdf:RDF>
      <cc:Work
         rdf:about="">
        <dc:format>image/svg+xml</dc:format>
        <dc:type
           rdf:resource="http://purl.org/dc/dcmitype/StillImage" />
        <dc:title></dc:title>
      </cc:Work>
    </rdf:RDF>
  </metadata>
  <g
     inkscape:label="Layer 1"
     inkscape:groupmode="layer"
     id="layer1"
     transform="translate(-80.886902,-191.92262)">
    <g
       id="g15818"
       transform="matrix(1.0018391,0,0,1.0032781,-571.53162,46.12365)"
       inkscape:export-xdpi="96"
       inkscape:export-ydpi="96">
      <g
         transform="matrix(0.22907852,0,0,-0.33242922,667.54469,166.22189)"
         id="g13411">
        <path
           inkscape:connector-curvature="0"
           id="path13413"
           style="fill:#ffffff;fill-opacity:1;fill-rule:nonzero;stroke:none"
           d="m 0,0 c 0,0 56.285,9.968 29.315,30.488 0,0 -37.669,29.462 -83.402,1.906 0,0 -16.71,-9.674 -7.329,-18.469 0,0 6.45,-10.554 36.059,-13.779 l -2.932,3.225 c 0,0 -1.466,2.346 0.293,4.105 0,0 1.759,1.758 4.397,0.293 l 9.381,-9.674 c 0,0 2.052,-2.052 0,-4.105 l -9.674,-9.381 c 0,0 -2.638,-1.758 -4.69,0.88 0,0 -1.173,2.052 0,3.518 l 4.25,4.251 c 0,0 -28.582,1.319 -42.36,16.563 0,0 -13.779,14.95 9.38,27.85 0,0 41.335,29.021 89.706,-1.173 0,0 20.227,-12.605 6.156,-27.557 0,0 -6.449,-10.26 -36.938,-15.244 0,0 -2.931,0 -3.81,2.932 0,0 -0.294,2.346 2.198,3.371" />
      </g>
      <g
         transform="matrix(0.22907852,0,0,-0.33242922,667.54469,166.22189)"
         id="g13415">
        <path
           inkscape:connector-curvature="0"
           id="path13417"
           style="fill:none;stroke:#000000;stroke-width:1;stroke-linecap:butt;stroke-linejoin:miter;stroke-miterlimit:10;stroke-dasharray:none;stroke-opacity:1"
           d="m 0,0 c 0,0 56.285,9.968 29.315,30.488 0,0 -37.669,29.462 -83.402,1.906 0,0 -16.71,-9.674 -7.329,-18.469 0,0 6.45,-10.554 36.059,-13.779 l -2.932,3.225 c 0,0 -1.466,2.346 0.293,4.105 0,0 1.759,1.758 4.397,0.293 l 9.381,-9.674 c 0,0 2.052,-2.052 0,-4.105 l -9.674,-9.381 c 0,0 -2.638,-1.758 -4.69,0.88 0,0 -1.173,2.052 0,3.518 l 4.25,4.251 c 0,0 -28.582,1.319 -42.36,16.563 0,0 -13.779,14.95 9.38,27.85 0,0 41.335,29.021 89.706,-1.173 0,0 20.227,-12.605 6.156,-27.557 0,0 -6.449,-10.26 -36.938,-15.244 0,0 -2.931,0 -3.81,2.932 0,0 -0.294,2.346 2.198,3.371 z" />
      </g>
      <g
         transform="matrix(0.22907852,0,0,-0.33242922,656.39702,151.60378)"
         id="g13419">
        <path
           inkscape:connector-curvature="0"
           id="path13421"
           style="fill:#015c63;fill-opacity:1;fill-rule:nonzero;stroke:none"
           d="m 0,0 c 0,0 2.932,5.862 11.433,4.396 0,0 7.182,-0.732 7.182,-7.768 0,0 -0.293,-4.983 -3.224,-6.449 0,0 3.81,-2.052 4.103,-4.984 0,0 0.587,-6.742 -2.052,-8.795 0,0 -3.224,-4.103 -12.019,-2.637 0,0 -6.156,1.172 -6.742,7.328 0,0 -0.293,2.638 2.344,2.638 h 2.639 c 0,0 1.759,-0.292 1.759,-2.344 0,0 -0.586,-2.346 3.811,-2.346 0,0 3.811,0 3.811,2.346 v 3.224 c 0,0 -0.293,2.638 -3.811,2.638 0,0 -2.052,-0.293 -2.345,2.346 0,0 -0.293,2.344 2.345,2.638 0,0 2.638,-0.294 2.932,2.345 0,0 0.879,3.518 -1.76,4.105 H 7.769 c 0,0 -2.053,-0.293 -2.053,-2.053 0,0 0.294,-2.052 -1.759,-2.345 H 1.025 c 0,0 -1.465,0.586 -1.465,2.345 0,0 -0.293,2.639 0.44,3.372" />
      </g>
      <g
         transform="matrix(0.22907852,0,0,-0.33242922,656.39702,151.60378)"
         id="g13423">
        <path
           inkscape:connector-curvature="0"
           id="path13425"
           style="fill:none;stroke:#ffffff;stroke-width:1;stroke-linecap:butt;stroke-linejoin:miter;stroke-miterlimit:10;stroke-dasharray:none;stroke-opacity:1"
           d="m 0,0 c 0,0 2.932,5.862 11.433,4.396 0,0 7.182,-0.732 7.182,-7.768 0,0 -0.293,-4.983 -3.224,-6.449 0,0 3.81,-2.052 4.103,-4.984 0,0 0.587,-6.742 -2.052,-8.795 0,0 -3.224,-4.103 -12.019,-2.637 0,0 -6.156,1.172 -6.742,7.328 0,0 -0.293,2.638 2.344,2.638 h 2.639 c 0,0 1.759,-0.292 1.759,-2.344 0,0 -0.586,-2.346 3.811,-2.346 0,0 3.811,0 3.811,2.346 v 3.224 c 0,0 -0.293,2.638 -3.811,2.638 0,0 -2.052,-0.293 -2.345,2.346 0,0 -0.293,2.344 2.345,2.638 0,0 2.638,-0.294 2.932,2.345 0,0 0.879,3.518 -1.76,4.105 H 7.769 c 0,0 -2.053,-0.293 -2.053,-2.053 0,0 0.294,-2.052 -1.759,-2.345 H 1.025 c 0,0 -1.465,0.586 -1.465,2.345 0,0 -0.293,2.639 0.44,3.372 z" />
      </g>
      <g
         transform="matrix(0.22907852,0,0,-0.33242922,663.54901,154.67353)"
         id="g13427">
        <path
           inkscape:connector-curvature="0"
           id="path13429"
           style="fill:#015c63;fill-opacity:1;fill-rule:nonzero;stroke:none"
           d="m 0,0 v 4.69 c 0,0 -0.587,2.345 3.811,3.518 0,0 3.518,0 3.811,-2.639 0,0 -0.293,-2.931 4.104,-2.344 0,0 2.052,-0.587 2.345,2.637 0,0 -0.293,4.691 -3.811,6.157 0,0 -4.691,3.518 -11.14,0.879 0,0 -5.276,-1.465 -5.863,-7.036 v -14.95 c 0,0 0.587,-5.57 4.691,-7.036 0,0 5.277,-2.638 11.433,0 0,0 3.81,2.053 4.397,5.863 v 4.984 c 0,0 0,5.277 -4.69,6.449 C 9.088,1.172 2.052,3.225 0,0" />
      </g>
      <g
         transform="matrix(0.22907852,0,0,-0.33242922,663.54901,154.67353)"
         id="g13431">
        <path
           inkscape:connector-curvature="0"
           id="path13433"
           style="fill:none;stroke:#ffffff;stroke-width:1;stroke-linecap:butt;stroke-linejoin:miter;stroke-miterlimit:10;stroke-dasharray:none;stroke-opacity:1"
           d="m 0,0 v 4.69 c 0,0 -0.587,2.345 3.811,3.518 0,0 3.518,0 3.811,-2.639 0,0 -0.293,-2.931 4.104,-2.344 0,0 2.052,-0.587 2.345,2.637 0,0 -0.293,4.691 -3.811,6.157 0,0 -4.691,3.518 -11.14,0.879 0,0 -5.276,-1.465 -5.863,-7.036 v -14.95 c 0,0 0.587,-5.57 4.691,-7.036 0,0 5.277,-2.638 11.433,0 0,0 3.81,2.053 4.397,5.863 v 4.984 c 0,0 0,5.277 -4.69,6.449 C 9.088,1.172 2.052,3.225 0,0 Z" />
      </g>
      <g
         transform="matrix(0.22907852,0,0,-0.33242922,663.54901,157.30474)"
         id="g13435">
        <path
           inkscape:connector-curvature="0"
           id="path13437"
           style="fill:none;stroke:#ffffff;stroke-width:1;stroke-linecap:butt;stroke-linejoin:miter;stroke-miterlimit:10;stroke-dasharray:none;stroke-opacity:1"
           d="m 0,0 c 0,0 -0.587,2.931 1.759,4.396 0,0 1.466,1.173 3.81,0 0,0 2.346,-0.585 2.053,-4.396 0,0 0,-4.397 -3.811,-4.397 0,0 -4.104,0.293 -3.811,4.397 z" />
      </g>
      <g
         transform="matrix(0.22907852,0,0,-0.33242922,667.91403,152.91953)"
         id="g13439">
        <path
           inkscape:connector-curvature="0"
           id="path13441"
           style="fill:#015c63;fill-opacity:1;fill-rule:nonzero;stroke:none"
           d="m 0,0 v -14.071 c 0,0 1.173,-7.036 4.983,-7.622 0,0 5.864,-2.052 10.847,0 0,0 4.691,2.345 4.984,7.036 V 0 c 0,0 0,6.449 -6.743,7.915 0,0 -4.983,1.759 -10.259,-1.173 C 3.812,6.742 0.293,4.69 0,0" />
      </g>
      <g
         transform="matrix(0.22907852,0,0,-0.33242922,667.91403,152.91953)"
         id="g13443">
        <path
           inkscape:connector-curvature="0"
           id="path13445"
           style="fill:none;stroke:#ffffff;stroke-width:1;stroke-linecap:butt;stroke-linejoin:miter;stroke-miterlimit:10;stroke-dasharray:none;stroke-opacity:1"
           d="m 0,0 v -14.071 c 0,0 1.173,-7.036 4.983,-7.622 0,0 5.864,-2.052 10.847,0 0,0 4.691,2.345 4.984,7.036 V 0 c 0,0 0,6.449 -6.743,7.915 0,0 -4.983,1.759 -10.259,-1.173 C 3.812,6.742 0.293,4.69 0,0 Z" />
      </g>
      <g
         transform="matrix(0.22907852,0,0,-0.33242922,669.45852,152.91953)"
         id="g13447">
        <path
           inkscape:connector-curvature="0"
           id="path13449"
           style="fill:none;stroke:#ffffff;stroke-width:1;stroke-linecap:butt;stroke-linejoin:miter;stroke-miterlimit:10;stroke-dasharray:none;stroke-opacity:1"
           d="m 0,0 v -13.778 c 0,0 0.294,-3.225 3.812,-3.225 0,0 3.517,0 3.81,3.225 V 0 c 0,0 -0.586,2.932 -3.81,2.639 0,0 -3.225,0 -3.812,-2.639 z" />
      </g>
      <g
         transform="matrix(0.30014155,0,0,-0.3233792,676.10892,147.63281)"
         id="g13451">
        <path
           inkscape:connector-curvature="0"
           id="path13453"
           style="fill:none;stroke:#ffffff;stroke-width:3;stroke-linecap:butt;stroke-linejoin:miter;stroke-miterlimit:10;stroke-dasharray:none;stroke-opacity:1"
           d="m 0,0 c 0,-3.116 -2.526,-5.643 -5.643,-5.643 -3.117,0 -5.643,2.527 -5.643,5.643 0,3.117 2.526,5.644 5.643,5.644 C -2.526,5.644 0,3.117 0,0 Z" />
      </g>
    </g>
  </g>
</svg>
