{
    "asset" : {
        "generator" : "Khronos glTF Blender I/O v1.3.48",
        "version" : "2.0"
    },
    "scene" : 0,
    "scenes" : [
        {
            "name" : "Scene",
            "nodes" : [
                0
            ]
        }
    ],
    "nodes" : [
        {
            "mesh" : 0,
            "name" : "Signal"
        }
    ],
    "animations" : [
        {
            "channels" : [
                {
                    "sampler" : 0,
                    "target" : {
                        "node" : 0,
                        "path" : "rotation"
                    }
                }
            ],
            "name" : "SignalAction",
            "samplers" : [
                {
                    "input" : 8,
                    "interpolation" : "LINEAR",
                    "output" : 9
                }
            ]
        }
    ],
    "materials" : [
        {
            "doubleSided" : true,
            "emissiveFactor" : [
                0,
                0,
                0
            ],
            "name" : "Green-Blueish",
            "pbrMetallicRoughness" : {
                "baseColorFactor" : [
                    0.07988645136356354,
                    0.8000000715255737,
                    0.29171937704086304,
                    1
                ],
                "metallicFactor" : 0,
                "roughnessFactor" : 0.5
            }
        },
        {
            "doubleSided" : true,
            "emissiveFactor" : [
                0,
                0,
                0
            ],
            "name" : "White",
            "pbrMetallicRoughness" : {
                "baseColorFactor" : [
                    1,
                    1,
                    1,
                    1
                ],
                "metallicFactor" : 0,
                "roughnessFactor" : 0.5
            }
        }
    ],
    "meshes" : [
        {
            "name" : "Cylinder.001",
            "primitives" : [
                {
                    "attributes" : {
                        "POSITION" : 0,
                        "NORMAL" : 1,
                        "TEXCOORD_0" : 2
                    },
                    "indices" : 3,
                    "material" : 0
                },
                {
                    "attributes" : {
                        "POSITION" : 4,
                        "NORMAL" : 5,
                        "TEXCOORD_0" : 6
                    },
                    "indices" : 7,
                    "material" : 1
                }
            ]
        }
    ],
    "accessors" : [
        {
            "bufferView" : 0,
            "componentType" : 5126,
            "count" : 349,
            "max" : [
                1.6351739168167114,
                7.491814613342285,
                1.6351739168167114
            ],
            "min" : [
                -1.6351739168167114,
                -6.768577575683594,
                -1.6351739168167114
            ],
            "type" : "VEC3"
        },
        {
            "bufferView" : 1,
            "componentType" : 5126,
            "count" : 349,
            "type" : "VEC3"
        },
        {
            "bufferView" : 2,
            "componentType" : 5126,
            "count" : 349,
            "type" : "VEC2"
        },
        {
            "bufferView" : 3,
            "componentType" : 5123,
            "count" : 1128,
            "type" : "SCALAR"
        },
        {
            "bufferView" : 4,
            "componentType" : 5126,
            "count" : 560,
            "max" : [
                12.60678768157959,
                12.6016206741333,
                1.807518482208252
            ],
            "min" : [
                -12.60678768157959,
                -12.6016206741333,
                -1.807518482208252
            ],
            "type" : "VEC3"
        },
        {
            "bufferView" : 5,
            "componentType" : 5126,
            "count" : 560,
            "type" : "VEC3"
        },
        {
            "bufferView" : 6,
            "componentType" : 5126,
            "count" : 560,
            "type" : "VEC2"
        },
        {
            "bufferView" : 7,
            "componentType" : 5123,
            "count" : 768,
            "type" : "SCALAR"
        },
        {
            "bufferView" : 8,
            "componentType" : 5126,
            "count" : 121,
            "max" : [
                5
            ],
            "min" : [
                0
            ],
            "type" : "SCALAR"
        },
        {
            "bufferView" : 9,
            "componentType" : 5126,
            "count" : 121,
            "type" : "VEC4"
        }
    ],
    "bufferViews" : [
        {
            "buffer" : 0,
            "byteLength" : 4188,
            "byteOffset" : 0
        },
        {
            "buffer" : 0,
            "byteLength" : 4188,
            "byteOffset" : 4188
        },
        {
            "buffer" : 0,
            "byteLength" : 2792,
            "byteOffset" : 8376
        },
        {
            "buffer" : 0,
            "byteLength" : 2256,
            "byteOffset" : 11168
        },
        {
            "buffer" : 0,
            "byteLength" : 6720,
            "byteOffset" : 13424
        },
        {
            "buffer" : 0,
            "byteLength" : 6720,
            "byteOffset" : 20144
        },
        {
            "buffer" : 0,
            "byteLength" : 4480,
            "byteOffset" : 26864
        },
        {
            "buffer" : 0,
            "byteLength" : 1536,
            "byteOffset" : 31344
        },
        {
            "buffer" : 0,
            "byteLength" : 484,
            "byteOffset" : 32880
        },
        {
            "buffer" : 0,
            "byteLength" : 1936,
            "byteOffset" : 33364
        }
    ],
    "buffers" : [
        {
            "byteLength" : 35300,
            "uri" : "data:application/octet-stream;base64,"
        }
    ]
}
