{
    "asset" : {
        "generator" : "Khronos glTF Blender I/O v1.3.48",
        "version" : "2.0"
    },
    "scene" : 0,
    "scenes" : [
        {
            "name" : "Scene",
            "nodes" : [
                0
            ]
        }
    ],
    "nodes" : [
        {
            "mesh" : 0,
            "name" : "360"
        }
    ],
    "animations" : [
        {
            "channels" : [
                {
                    "sampler" : 0,
                    "target" : {
                        "node" : 0,
                        "path" : "rotation"
                    }
                }
            ],
            "name" : "360Action.001",
            "samplers" : [
                {
                    "input" : 8,
                    "interpolation" : "LINEAR",
                    "output" : 9
                }
            ]
        },
        {
            "channels" : [
                {
                    "sampler" : 0,
                    "target" : {
                        "node" : 0,
                        "path" : "translation"
                    }
                }
            ],
            "name" : "CylinderAction.001",
            "samplers" : [
                {
                    "input" : 10,
                    "interpolation" : "LINEAR",
                    "output" : 11
                }
            ]
        }
    ],
    "materials" : [
        {
            "doubleSided" : true,
            "emissiveFactor" : [
                0,
                0,
                0
            ],
            "name" : "Green-Blueish",
            "pbrMetallicRoughness" : {
                "baseColorFactor" : [
                    0.07988645136356354,
                    0.8000000715255737,
                    0.29171937704086304,
                    1
                ],
                "metallicFactor" : 0,
                "roughnessFactor" : 0.5
            }
        },
        {
            "doubleSided" : true,
            "emissiveFactor" : [
                0,
                0,
                0
            ],
            "name" : "White",
            "pbrMetallicRoughness" : {
                "baseColorFactor" : [
                    1,
                    1,
                    1,
                    1
                ],
                "metallicFactor" : 0,
                "roughnessFactor" : 0.5
            }
        }
    ],
    "meshes" : [
        {
            "name" : "Cylinder.002",
            "primitives" : [
                {
                    "attributes" : {
                        "POSITION" : 0,
                        "NORMAL" : 1,
                        "TEXCOORD_0" : 2
                    },
                    "indices" : 3,
                    "material" : 0
                },
                {
                    "attributes" : {
                        "POSITION" : 4,
                        "NORMAL" : 5,
                        "TEXCOORD_0" : 6
                    },
                    "indices" : 7,
                    "material" : 1
                }
            ]
        }
    ],
    "accessors" : [
        {
            "bufferView" : 0,
            "componentType" : 5126,
            "count" : 6951,
            "max" : [
                7.621771335601807,
                7.615919589996338,
                0.1922674924135208
            ],
            "min" : [
                -7.621771335601807,
                -7.615919589996338,
                -1.0639911890029907
            ],
            "type" : "VEC3"
        },
        {
            "bufferView" : 1,
            "componentType" : 5126,
            "count" : 6951,
            "type" : "VEC3"
        },
        {
            "bufferView" : 2,
            "componentType" : 5126,
            "count" : 6951,
            "type" : "VEC2"
        },
        {
            "bufferView" : 3,
            "componentType" : 5123,
            "count" : 19428,
            "type" : "SCALAR"
        },
        {
            "bufferView" : 4,
            "componentType" : 5126,
            "count" : 560,
            "max" : [
                12.60678768157959,
                12.6016206741333,
                1.807518482208252
            ],
            "min" : [
                -12.60678768157959,
                -12.6016206741333,
                -1.807518482208252
            ],
            "type" : "VEC3"
        },
        {
            "bufferView" : 5,
            "componentType" : 5126,
            "count" : 560,
            "type" : "VEC3"
        },
        {
            "bufferView" : 6,
            "componentType" : 5126,
            "count" : 560,
            "type" : "VEC2"
        },
        {
            "bufferView" : 7,
            "componentType" : 5123,
            "count" : 768,
            "type" : "SCALAR"
        },
        {
            "bufferView" : 8,
            "componentType" : 5126,
            "count" : 121,
            "max" : [
                5
            ],
            "min" : [
                0
            ],
            "type" : "SCALAR"
        },
        {
            "bufferView" : 9,
            "componentType" : 5126,
            "count" : 121,
            "type" : "VEC4"
        },
        {
            "bufferView" : 10,
            "componentType" : 5126,
            "count" : 120,
            "max" : [
                5
            ],
            "min" : [
                0.041666666666666664
            ],
            "type" : "SCALAR"
        },
        {
            "bufferView" : 11,
            "componentType" : 5126,
            "count" : 120,
            "type" : "VEC3"
        }
    ],
    "bufferViews" : [
        {
            "buffer" : 0,
            "byteLength" : 83412,
            "byteOffset" : 0
        },
        {
            "buffer" : 0,
            "byteLength" : 83412,
            "byteOffset" : 83412
        },
        {
            "buffer" : 0,
            "byteLength" : 55608,
            "byteOffset" : 166824
        },
        {
            "buffer" : 0,
            "byteLength" : 38856,
            "byteOffset" : 222432
        },
        {
            "buffer" : 0,
            "byteLength" : 6720,
            "byteOffset" : 261288
        },
        {
            "buffer" : 0,
            "byteLength" : 6720,
            "byteOffset" : 268008
        },
        {
            "buffer" : 0,
            "byteLength" : 4480,
            "byteOffset" : 274728
        },
        {
            "buffer" : 0,
            "byteLength" : 1536,
            "byteOffset" : 279208
        },
        {
            "buffer" : 0,
            "byteLength" : 484,
            "byteOffset" : 280744
        },
        {
            "buffer" : 0,
            "byteLength" : 1936,
            "byteOffset" : 281228
        },
        {
            "buffer" : 0,
            "byteLength" : 480,
            "byteOffset" : 283164
        },
        {
            "buffer" : 0,
            "byteLength" : 1440,
            "byteOffset" : 283644
        }
    ],
    "buffers" : [
        {
            "byteLength" : 285084,
            "uri" : "data:application/octet-stream;base64,"
        }
    ]
}
